<svg width="80" height="80" xmlns="http://www.w3.org/2000/svg">

 <g>
  <title>background</title>
  <rect fill="none" id="canvas_background" height="402" width="582" y="-1" x="-1"/>
 </g>
 <g>
  <title>Layer 1</title>
  <polyline id="svg_1" fill="none" stroke="#36404D" stroke-miterlimit="10" points="71.5,8.5 55.5,23.625 31.5,14.5 42.5,54.5 20.5,50.5   8.5,71.5 "/>
  <g id="svg_2">
   <path id="svg_3" fill="#B0C1D4" d="m71.5,12.5c-2.206,0 -4,-1.794 -4,-4s1.794,-4 4,-4s4,1.794 4,4s-1.794,4 -4,4z"/>
   <g id="svg_4">
    <path id="svg_5" fill="#66798F" d="m71.5,5c1.93,0 3.5,1.57 3.5,3.5s-1.57,3.5 -3.5,3.5s-3.5,-1.57 -3.5,-3.5s1.57,-3.5 3.5,-3.5m0,-1c-2.485,0 -4.5,2.015 -4.5,4.5s2.015,4.5 4.5,4.5s4.5,-2.015 4.5,-4.5s-2.015,-4.5 -4.5,-4.5l0,0z"/>
   </g>
  </g>
  <g id="svg_6">
   <path id="svg_7" fill="#B0C1D4" d="m55.5,27.5c-2.206,0 -4,-1.794 -4,-4s1.794,-4 4,-4s4,1.794 4,4s-1.794,4 -4,4z"/>
   <g id="svg_8">
    <path id="svg_9" fill="#66798F" d="m55.5,20c1.93,0 3.5,1.57 3.5,3.5s-1.57,3.5 -3.5,3.5s-3.5,-1.57 -3.5,-3.5s1.57,-3.5 3.5,-3.5m0,-1c-2.485,0 -4.5,2.015 -4.5,4.5c0,2.485 2.015,4.5 4.5,4.5c2.485,0 4.5,-2.015 4.5,-4.5c0,-2.485 -2.015,-4.5 -4.5,-4.5l0,0z"/>
   </g>
  </g>
  <g id="svg_10">
   <path id="svg_11" fill="#B0C1D4" d="m31.5,18.5c-2.206,0 -4,-1.794 -4,-4s1.794,-4 4,-4s4,1.794 4,4s-1.794,4 -4,4z"/>
   <g id="svg_12">
    <path id="svg_13" fill="#66798F" d="m31.5,11c1.93,0 3.5,1.57 3.5,3.5s-1.57,3.5 -3.5,3.5s-3.5,-1.57 -3.5,-3.5s1.57,-3.5 3.5,-3.5m0,-1c-2.485,0 -4.5,2.015 -4.5,4.5s2.015,4.5 4.5,4.5s4.5,-2.015 4.5,-4.5s-2.015,-4.5 -4.5,-4.5l0,0z"/>
   </g>
  </g>
  <g id="svg_14">
   <path id="svg_15" fill="#B0C1D4" d="m42.5,58.5c-2.206,0 -4,-1.794 -4,-4s1.794,-4 4,-4s4,1.794 4,4s-1.794,4 -4,4z"/>
   <g id="svg_16">
    <path id="svg_17" fill="#66798F" d="m42.5,51c1.93,0 3.5,1.57 3.5,3.5s-1.57,3.5 -3.5,3.5s-3.5,-1.57 -3.5,-3.5s1.57,-3.5 3.5,-3.5m0,-1c-2.485,0 -4.5,2.015 -4.5,4.5c0,2.485 2.015,4.5 4.5,4.5s4.5,-2.015 4.5,-4.5c0,-2.485 -2.015,-4.5 -4.5,-4.5l0,0z"/>
   </g>
  </g>
  <g id="svg_18">
   <path id="svg_19" fill="#B0C1D4" d="m8.5,75.5c-2.206,0 -4,-1.794 -4,-4s1.794,-4 4,-4s4,1.794 4,4s-1.793,4 -4,4z"/>
   <g id="svg_20">
    <path id="svg_21" fill="#66798F" d="m8.5,68c1.93,0 3.5,1.57 3.5,3.5s-1.57,3.5 -3.5,3.5s-3.5,-1.57 -3.5,-3.5s1.57,-3.5 3.5,-3.5m0,-1c-2.485,0 -4.5,2.015 -4.5,4.5s2.015,4.5 4.5,4.5c2.485,0 4.5,-2.015 4.5,-4.5s-2.015,-4.5 -4.5,-4.5l0,0z"/>
   </g>
  </g>
  <g id="svg_22">
   <path id="svg_23" fill="#B0C1D4" d="m20.5,54.5c-2.206,0 -4,-1.794 -4,-4s1.794,-4 4,-4s4,1.794 4,4s-1.794,4 -4,4z"/>
   <g id="svg_24">
    <path id="svg_25" fill="#66798F" d="m20.5,47c1.93,0 3.5,1.57 3.5,3.5s-1.57,3.5 -3.5,3.5s-3.5,-1.57 -3.5,-3.5s1.57,-3.5 3.5,-3.5m0,-1c-2.485,0 -4.5,2.015 -4.5,4.5s2.015,4.5 4.5,4.5c2.485,0 4.5,-2.015 4.5,-4.5s-2.015,-4.5 -4.5,-4.5l0,0z"/>
   </g>
  </g>
 </g>
</svg>